<svg xmlns="http://www.w3.org/2000/svg" viewBox="0 0 800 600"><defs><linearGradient id="a" x1="0" y1="0" x2="1" y2="1"><stop stop-color="#342018"/><stop offset="1" stop-color="#111116"/></linearGradient><linearGradient id="b" x1="0" y1="0" x2="0" y2="1"><stop stop-color="#ffd66d"/><stop offset="1" stop-color="#b9671d"/></linearGradient></defs><rect width="800" height="600" rx="28" fill="url(#a)"/><ellipse cx="410" cy="492" rx="270" ry="38" fill="#000" opacity=".45"/><path d="M196 182h420l-68 272H263Z" fill="url(#b)" stroke="#ffe49a" stroke-width="8"/><g stroke="#8e4a18" stroke-width="12" opacity=".75"><path d="m235 220 270 200M310 190l270 200M390 190l170 130M220 310l185 140M185 380l100 70M570 220 300 420M505 190 245 390M615 290 410 450M620 370 520 450"/></g><path d="M224 184c35-39 80 3 116-28 43-37 74 20 119-12 40-29 66 27 116 0 33-18 66 12 41 42H214Z" fill="#552418"/><g fill="#e54b38"><circle cx="277" cy="170" r="18"/><circle cx="535" cy="156" r="17"/><circle cx="465" cy="188" r="14"/></g><text x="400" y="90" text-anchor="middle" fill="#ffc400" font-family="sans-serif" font-size="34" font-weight="700">BUMBLE DESSERTS</text></svg>